<?xml version="1.0" encoding="utf-8"?>
<!-- Generator: Adobe Illustrator 16.0.0, SVG Export Plug-In . SVG Version: 6.00 Build 0)  -->
<!DOCTYPE svg PUBLIC "-//W3C//DTD SVG 1.1//EN" "http://www.w3.org/Graphics/SVG/1.1/DTD/svg11.dtd">
<svg version="1.1" id="Layer_1" xmlns="http://www.w3.org/2000/svg" xmlns:xlink="http://www.w3.org/1999/xlink" x="0px" y="0px"
	 width="538px" height="721px" viewBox="0 0 538 721" enable-background="new 0 0 538 721" xml:space="preserve">
<image overflow="visible" width="1024" height="1024" xlink:href="C85A77FC.jpg"  transform="matrix(1 0 0 1 -7886 -7796)">
</image>
<path fill-rule="evenodd" clip-rule="evenodd" fill="#06e07c" d="M451.295,177.532c1.621,9.451,3.295,18.893,4.853,28.354
	c3.064,18.61,6.09,37.227,9.079,55.85c3.159,19.675,6.214,39.368,9.394,59.041c3.647,22.559,7.421,45.096,11.066,67.655
	c3.89,24.065,7.653,48.149,11.545,72.212c3.891,24.058,7.892,48.1,11.801,72.155c0.864,5.315,1.542,10.662,2.305,15.992
	c-0.303,0.824-0.94,1.305-1.684,1.716c-15.646,8.652-31.294,17.304-46.93,25.978c-17.487,9.702-34.969,19.414-52.44,29.143
	c-19.836,11.044-39.654,22.117-59.485,33.168c-18.188,10.134-36.517,20.024-54.537,30.448c-16.27,9.411-32.517,10.89-49.239,1.636
	c-6.277-3.474-12.441-7.152-18.704-10.654c-30.701-17.165-61.426-34.285-92.125-51.454c-33.779-18.892-67.539-37.82-101.307-56.731
	c0.503-1.828,2.037-2.853,3.268-4.085C75.86,510.22,113.582,472.5,151.301,434.777c90.84-90.851,181.688-181.696,272.5-272.575
	c4.18-4.182,8.913-6.135,14.679-4.457c6.156,1.791,10.12,5.706,11.075,12.328C449.918,172.594,449.868,175.246,451.295,177.532z"/>
<path fill-rule="evenodd" clip-rule="evenodd" fill="#06e07c" d="M30.388,550.114c2.624-16.913,5.249-33.826,7.872-50.738
	c2.893-18.656,5.765-37.315,8.681-55.968c2.752-17.605,5.585-35.198,8.319-52.806c3.167-20.396,6.221-40.808,9.402-61.2
	c3.632-23.283,7.379-46.546,11.019-69.828c2.969-18.994,5.811-38.007,8.788-57c3.415-21.777,6.964-43.534,10.367-65.313
	c3.422-21.897,6.717-43.815,10.114-65.717c0.805-5.188,1.796-10.348,2.701-15.521c2.036-5.743,2.8-17.654,2.8-17.655
	c0.473-2.226,0.712-3.294,0.795-4.984c0,0,0.607-0.711,0.733-1.14c2.036-6.918,7.154-10.213,13.853-10.686
	c6.348-0.448,10.904,2.977,13.877,8.553c5.092,9.552,10.22,19.085,15.345,28.62c13.368,24.874,26.732,49.75,40.12,74.614
	c5.912,10.98,11.908,21.916,17.805,32.904c3.39,6.315,6.661,12.694,9.985,19.045c-2.384,4.32-4.837,8.604-7.139,12.968
	c-9.77,18.526-19.493,37.078-29.237,55.618c-14.288,27.183-28.583,54.363-42.869,81.547c-9.961,18.954-19.912,37.912-29.868,56.868
	c-14.773,28.127-29.569,56.242-44.314,84.383c-11.688,22.308-23.285,44.662-35.01,66.949
	C33.342,545.881,32.429,548.38,30.388,550.114z"/>
<path fill-rule="evenodd" clip-rule="evenodd" fill="#469670" d="M30.388,550.114c2.041-1.734,2.954-4.233,4.138-6.483
	c11.725-22.287,23.322-44.642,35.01-66.949c14.745-28.141,29.541-56.256,44.314-84.383c9.956-18.956,19.907-37.914,29.868-56.868
	c14.286-27.184,28.581-54.364,42.869-81.547c9.745-18.54,19.467-37.092,29.237-55.618c2.302-4.364,4.755-8.647,7.139-12.967
	c0.676,0.218,1.353,0.436,2.03,0.653c1.435,1.439,2.315,3.232,3.249,5.002c5.529,10.493,11.078,20.975,16.627,31.457
	c11.708,22.116,23.439,44.219,35.114,66.353c2.795,5.299,2.711,5.344,8.402,4.72c-17.733,17.889-35.413,35.831-53.209,53.656
	c-66.798,66.907-133.631,133.778-200.473,200.641c-1.486,1.486-2.652,3.331-4.589,4.346
	C29.979,551.424,29.876,550.727,30.388,550.114z"/>
<path fill-rule="evenodd" clip-rule="evenodd" fill="#06e07c" d="M34.887,552.039c33.768,18.911,67.527,37.84,101.307,56.731
	c30.699,17.169,61.425,34.289,92.125,51.454c6.263,3.502,12.427,7.181,18.704,10.654c16.722,9.254,32.969,7.775,49.239-1.636
	c18.02-10.424,36.348-20.314,54.537-30.448c19.831-11.051,39.649-22.124,59.485-33.168c17.472-9.729,34.953-19.44,52.44-29.143
	c15.636-8.674,31.283-17.325,46.93-25.978c0.743-0.411,1.381-0.892,1.684-1.716c1.327,2.696,0.669,4.311-2.125,5.861
	c-72.034,39.96-144.006,80.035-216.014,120.044c-15.535,8.63-31.12,8.435-46.609-0.253
	c-70.423-39.492-140.846-78.984-211.265-118.484c-0.9-0.506-1.739-1.121-2.605-1.684C32.928,553.031,33.678,552.313,34.887,552.039z
	"/>
<path fill-rule="evenodd" clip-rule="evenodd" fill="#469670" d="M34.887,552.039c-1.209,0.273-1.959,0.992-2.168,2.236
	c-1.332-0.156-2.359-0.68-2.606-2.15c1.938-1.015,3.103-2.859,4.589-4.346c66.842-66.863,133.675-133.734,200.473-200.641
	c17.796-17.825,35.476-35.767,53.207-53.655c18.458-18.448,36.919-36.895,55.371-55.353c0.321-0.322,0.508-0.78,0.757-1.174
	c0.662-0.433,1.323-0.866,1.985-1.299c4.213-4.266,8.405-8.55,12.641-12.793c21.273-21.312,42.591-42.579,63.81-63.944
	c4.731-4.764,10.084-6.758,16.571-4.716c6.577,2.07,9.677,6.897,10.388,13.591c0.345,3.256,1.371,6.427,1.392,9.738
	c-1.427-2.287-1.377-4.939-1.74-7.459c-0.955-6.622-4.919-10.537-11.075-12.328c-5.766-1.678-10.499,0.275-14.679,4.457
	c-90.813,90.879-181.66,181.724-272.5,272.575C113.582,472.5,75.86,510.22,38.154,547.954
	C36.923,549.187,35.39,550.211,34.887,552.039z"/>
<path fill-rule="evenodd" clip-rule="evenodd" fill="#06e07c" d="M224.992,185.951c-0.62-1.512,0.646-2.42,1.213-3.492
	c5.33-10.078,10.758-20.104,16.092-30.18c5.226-9.87,10.305-19.818,15.589-29.657c2.789-5.193,7.351-7.906,13.242-7.866
	c5.744,0.04,10.245,2.71,12.939,7.782c9.763,18.375,19.367,36.833,29.085,55.232c9.937,18.812,19.938,37.59,29.909,56.384
	c0.492,0.928,0.965,1.868,1.446,2.802c-0.249,0.394-0.436,0.852-0.757,1.174c-18.451,18.458-36.913,36.905-55.371,55.353
	c-5.688,0.623-5.604,0.578-8.399-4.721c-11.675-22.133-23.407-44.236-35.114-66.353c-5.549-10.482-11.098-20.964-16.627-31.457
	C227.308,189.183,226.427,187.391,224.992,185.951z"/>
</svg>
